<svg xmlns="http://www.w3.org/2000/svg" version="1.1" width="420" height="420"><path d="M19.474411167423504 120L88.75644347017857 80L227.32050807568874 160L227.32050807568874 200L261.9615242270663 220L261.9615242270663 380L140.7179676972449 310L140.7179676972449 250L106.07695154586736 230L88.75644347017857 240L88.75644347017857 280L123.39745962155612 300L140.7179676972449 290L140.7179676972449 310L261.9615242270663 380L192.6794919243112 420L54.11542731880104 340L54.11542731880104 300L19.474411167423504 280Z" fill="#808080"/><path d="M158.03847577293368 40L227.32050807568874 0L365.88457268119896 80L365.88457268119896 120L400.52558883257643 140L400.52558883257643 300L331.2435565298214 340L331.2435565298214 320L365.88457268119896 300L365.88457268119896 260L331.2435565298214 240L331.2435565298214 140L244.64101615137753 90L244.64101615137753 50L210 30L175.35898384862242 50Z" fill="#808080"/><path d="M88.75644347017857 40L123.39745962155612 20L175.35898384862242 50L210 30L244.64101615137753 50L244.64101615137753 90L331.2435565298214 140L331.2435565298214 240L365.88457268119896 260L365.88457268119896 300L331.2435565298214 320L331.2435565298214 380L296.60254037844385 400L261.9615242270663 380L261.9615242270663 220L227.32050807568874 200L227.32050807568874 160L88.75644347017857 80Z" fill="#5e2419"/><path d="M88.75644347017857 240L106.07695154586736 230L140.7179676972449 250L140.7179676972449 290L123.39745962155612 300L88.75644347017857 280Z" fill="#5e2419"/><path d="M19.474411167423504 120L54.11542731880104 140L54.11542731880104 100L192.6794919243112 180L192.6794919243112 220L227.32050807568874 240L227.32050807568874 360L140.7179676972449 310L140.7179676972449 250L106.07695154586736 230L88.75644347017857 240L123.39745962155612 260L123.39745962155612 300L140.7179676972449 290L140.7179676972449 310L227.32050807568874 360L227.32050807568874 400L192.6794919243112 380L192.6794919243112 420L54.11542731880104 340L54.11542731880104 300L19.474411167423504 280Z" fill="#00000026"/><path d="M88.75644347017857 40L175.35898384862242 90L175.35898384862242 50L210 70L210 110L296.60254037844385 160L296.60254037844385 260L331.2435565298214 280L331.2435565298214 320L296.60254037844385 300L296.60254037844385 400L261.9615242270663 380L261.9615242270663 220L227.32050807568874 200L227.32050807568874 160L88.75644347017857 80Z" fill="#00000026"/><path d="M192.6794919243112 20L210 30L192.6794919243112 40Z" fill="#00000026"/><path d="M244.64101615137753 50L331.2435565298214 100L331.2435565298214 140L244.64101615137753 90Z" fill="#00000026"/><path d="M331.2435565298214 140L365.88457268119896 160L365.88457268119896 260L331.2435565298214 240Z" fill="#00000026"/><path d="M348.5640646055101 310L365.88457268119896 300L365.88457268119896 320Z" fill="#00000026"/><path d="M123.39745962155612 260L140.7179676972449 250L140.7179676972449 290L123.39745962155612 300Z" fill="#00000066"/><path d="M192.6794919243112 180L227.32050807568874 160L227.32050807568874 200L192.6794919243112 220Z" fill="#00000066"/><path d="M192.6794919243112 380L227.32050807568874 400L192.6794919243112 420Z" fill="#00000066"/><path d="M210 70L244.64101615137753 50L244.64101615137753 90L210 110Z" fill="#00000066"/><path d="M227.32050807568874 240L261.9615242270663 220L261.9615242270663 380L227.32050807568874 400Z" fill="#00000066"/><path d="M296.60254037844385 160L331.2435565298214 140L331.2435565298214 240L296.60254037844385 260Z" fill="#00000066"/><path d="M296.60254037844385 300L331.2435565298214 320L331.2435565298214 280L365.88457268119896 260L365.88457268119896 160L400.52558883257643 140L400.52558883257643 300L365.88457268119896 320L365.88457268119896 300L348.5640646055101 310L365.88457268119896 320L331.2435565298214 340L331.2435565298214 380L296.60254037844385 400Z" fill="#00000066"/><path d="M331.2435565298214 100L365.88457268119896 80L365.88457268119896 120L331.2435565298214 140Z" fill="#00000066"/></svg>
