<svg xmlns="http://www.w3.org/2000/svg" version="1.1" width="381.051177665153" height="420"><path d="M0 120L69.28203230275507 80L207.84609690826525 160L207.84609690826525 200L242.48711305964278 220L242.48711305964278 380L121.24355652982139 310L121.24355652982139 250L86.60254037844385 230L69.28203230275507 240L69.28203230275507 280L103.92304845413263 300L121.24355652982139 290L121.24355652982139 310L242.48711305964278 380L173.2050807568877 420L34.641016151377535 340L34.641016151377535 300L0 280Z" fill="#808080"/><path d="M138.56406460551017 40L207.84609690826525 0L346.4101615137754 80L346.4101615137754 120L381.051177665153 140L381.051177665153 300L311.76914536239786 340L311.76914536239786 320L346.4101615137754 300L346.4101615137754 260L311.76914536239786 240L311.76914536239786 140L225.16660498395402 90L225.16660498395402 50L190.5255888325765 30L155.88457268119893 50Z" fill="#808080"/><path d="M69.28203230275507 40L103.92304845413263 20L155.88457268119893 50L190.5255888325765 30L225.16660498395402 50L225.16660498395402 90L311.76914536239786 140L311.76914536239786 240L346.4101615137754 260L346.4101615137754 300L311.76914536239786 320L311.76914536239786 380L277.12812921102034 400L242.48711305964278 380L242.48711305964278 220L207.84609690826525 200L207.84609690826525 160L69.28203230275507 80Z" fill="#5e2419"/><path d="M69.28203230275507 240L86.60254037844385 230L121.24355652982139 250L121.24355652982139 290L103.92304845413263 300L69.28203230275507 280Z" fill="#5e2419"/><path d="M0 120L34.641016151377535 140L34.641016151377535 100L173.2050807568877 180L173.2050807568877 220L207.84609690826525 240L207.84609690826525 360L121.24355652982139 310L121.24355652982139 250L86.60254037844385 230L69.28203230275507 240L103.92304845413263 260L103.92304845413263 300L121.24355652982139 290L121.24355652982139 310L207.84609690826525 360L207.84609690826525 400L173.2050807568877 380L173.2050807568877 420L34.641016151377535 340L34.641016151377535 300L0 280Z" fill="#00000026"/><path d="M69.28203230275507 40L155.88457268119893 90L155.88457268119893 50L190.5255888325765 70L190.5255888325765 110L277.12812921102034 160L277.12812921102034 260L311.76914536239786 280L311.76914536239786 320L277.12812921102034 300L277.12812921102034 400L242.48711305964278 380L242.48711305964278 220L207.84609690826525 200L207.84609690826525 160L69.28203230275507 80Z" fill="#00000026"/><path d="M173.2050807568877 20L190.5255888325765 30L173.2050807568877 40Z" fill="#00000026"/><path d="M225.16660498395402 50L311.76914536239786 100L311.76914536239786 140L225.16660498395402 90Z" fill="#00000026"/><path d="M311.76914536239786 140L346.4101615137754 160L346.4101615137754 260L311.76914536239786 240Z" fill="#00000026"/><path d="M329.08965343808666 310L346.4101615137754 300L346.4101615137754 320Z" fill="#00000026"/><path d="M103.92304845413263 260L121.24355652982139 250L121.24355652982139 290L103.92304845413263 300Z" fill="#00000066"/><path d="M173.2050807568877 180L207.84609690826525 160L207.84609690826525 200L173.2050807568877 220Z" fill="#00000066"/><path d="M173.2050807568877 380L207.84609690826525 400L173.2050807568877 420Z" fill="#00000066"/><path d="M190.5255888325765 70L225.16660498395402 50L225.16660498395402 90L190.5255888325765 110Z" fill="#00000066"/><path d="M207.84609690826525 240L242.48711305964278 220L242.48711305964278 380L207.84609690826525 400Z" fill="#00000066"/><path d="M277.12812921102034 160L311.76914536239786 140L311.76914536239786 240L277.12812921102034 260Z" fill="#00000066"/><path d="M277.12812921102034 300L311.76914536239786 320L311.76914536239786 280L346.4101615137754 260L346.4101615137754 160L381.051177665153 140L381.051177665153 300L346.4101615137754 320L346.4101615137754 300L329.08965343808666 310L346.4101615137754 320L311.76914536239786 340L311.76914536239786 380L277.12812921102034 400Z" fill="#00000066"/><path d="M311.76914536239786 100L346.4101615137754 80L346.4101615137754 120L311.76914536239786 140Z" fill="#00000066"/></svg>